<svg xmlns="http://www.w3.org/2000/svg" width="32" height="33" viewBox="0 0 32 33" fill="none">
  <path d="M7.70852 26.1665H17.624C18.3767 26.1665 18.969 25.5421 18.819 24.8045C18.405 22.7681 17.0526 19.1665 12.6663 19.1665C8.28003 19.1665 6.92768 22.7681 6.5136 24.8045C6.36362 25.5421 6.95586 26.1665 7.70852 26.1665Z" stroke="#3F3F55" stroke-width="1.5" stroke-linecap="round" stroke-linejoin="round"/>
  <path d="M21 19.1665C23.7717 19.1665 24.9069 22.0304 25.3652 24.0945C25.6127 25.2092 24.7111 26.1665 23.5692 26.1665H22.3333" stroke="#3F3F55" stroke-width="1.5" stroke-linecap="round" stroke-linejoin="round"/>
  <path d="M12.6667 14.1668C14.6917 14.1668 16.3333 12.5252 16.3333 10.5002C16.3333 8.47512 14.6917 6.8335 12.6667 6.8335C10.6416 6.8335 9 8.47512 9 10.5002C9 12.5252 10.6416 14.1668 12.6667 14.1668Z" stroke="#3F3F55" stroke-width="1.5" stroke-linecap="round" stroke-linejoin="round"/>
  <path d="M19.666 14.1668C21.6911 14.1668 22.9993 12.5252 22.9993 10.5002C22.9993 8.47512 21.6911 6.8335 19.666 6.8335" stroke="#3F3F55" stroke-width="1.5" stroke-linecap="round" stroke-linejoin="round"/>
</svg>