<svg width="35" height="36" viewBox="0 0 35 36" fill="none" xmlns="http://www.w3.org/2000/svg">
<path d="M16.75 19.5923H13.25C12.1454 19.5923 11.25 18.6969 11.25 17.5923V7.09229C11.25 5.98772 12.1454 5.09229 13.25 5.09229H19.5L23.75 9.34229V11.5923" stroke="#DA0175" stroke-width="1.5" stroke-linecap="round" stroke-linejoin="round"/>
<path d="M22.5 15.0923V19.5923" stroke="#DA0175" stroke-width="1.5" stroke-linecap="round" stroke-linejoin="round"/>
<path d="M24.75 17.3423H20.25" stroke="#DA0175" stroke-width="1.5" stroke-linecap="round" stroke-linejoin="round"/>
<path d="M23.5 9.59229H19.25V5.34229" stroke="#DA0175" stroke-width="1.5" stroke-linecap="round" stroke-linejoin="round"/>
<path d="M3.112 32.4063C2.57333 32.4063 2.104 32.2916 1.704 32.0623C1.304 31.8276 0.997333 31.4943 0.784 31.0623C0.570667 30.625 0.464 30.1103 0.464 29.5183C0.464 28.9316 0.570667 28.4223 0.784 27.9903C0.997333 27.553 1.304 27.2196 1.704 26.9903C2.104 26.7556 2.57333 26.6383 3.112 26.6383C3.464 26.6383 3.79733 26.6943 4.112 26.8063C4.42667 26.913 4.70133 27.0703 4.936 27.2783C5.03733 27.3583 5.088 27.465 5.088 27.5983C5.088 27.6943 5.06133 27.777 5.008 27.8463C4.95467 27.9103 4.89067 27.9423 4.816 27.9423C4.72533 27.9423 4.63733 27.9076 4.552 27.8383C4.296 27.6463 4.06133 27.513 3.848 27.4383C3.64 27.3583 3.40267 27.3183 3.136 27.3183C2.54933 27.3183 2.09867 27.5076 1.784 27.8863C1.46933 28.265 1.312 28.809 1.312 29.5183C1.312 30.233 1.46933 30.7796 1.784 31.1583C2.09867 31.537 2.54933 31.7263 3.136 31.7263C3.392 31.7263 3.624 31.6863 3.832 31.6063C4.04533 31.5263 4.28533 31.393 4.552 31.2063C4.65867 31.137 4.74667 31.1023 4.816 31.1023C4.89067 31.1023 4.95467 31.137 5.008 31.2063C5.06133 31.2703 5.088 31.3503 5.088 31.4463C5.088 31.5796 5.03733 31.6863 4.936 31.7663C4.70133 31.9743 4.42667 32.1343 4.112 32.2463C3.79733 32.353 3.464 32.4063 3.112 32.4063ZM7.59194 32.3983C7.20794 32.3983 6.86927 32.3156 6.57594 32.1503C6.28794 31.985 6.06394 31.7503 5.90394 31.4463C5.74927 31.137 5.67194 30.7796 5.67194 30.3743C5.67194 29.9636 5.74927 29.6063 5.90394 29.3023C6.06394 28.993 6.28794 28.7556 6.57594 28.5903C6.86927 28.425 7.20794 28.3423 7.59194 28.3423C7.97594 28.3423 8.31194 28.425 8.59994 28.5903C8.89327 28.7556 9.11727 28.993 9.27194 29.3023C9.43194 29.6063 9.51194 29.9636 9.51194 30.3743C9.51194 30.7796 9.43194 31.137 9.27194 31.4463C9.11727 31.7503 8.89327 31.985 8.59994 32.1503C8.31194 32.3156 7.97594 32.3983 7.59194 32.3983ZM7.59194 31.7583C7.94927 31.7583 8.22127 31.641 8.40794 31.4063C8.59994 31.1716 8.69594 30.8276 8.69594 30.3743C8.69594 29.9263 8.59994 29.585 8.40794 29.3503C8.21594 29.1103 7.94394 28.9903 7.59194 28.9903C7.23994 28.9903 6.96794 29.1103 6.77594 29.3503C6.58394 29.585 6.48794 29.9263 6.48794 30.3743C6.48794 30.8276 6.58127 31.1716 6.76794 31.4063C6.95994 31.641 7.2346 31.7583 7.59194 31.7583ZM12.5076 28.3423C12.8489 28.3423 13.1502 28.425 13.4116 28.5903C13.6729 28.7556 13.8756 28.9903 14.0196 29.2943C14.1689 29.5983 14.2436 29.953 14.2436 30.3583C14.2436 30.7583 14.1689 31.113 14.0196 31.4223C13.8756 31.7316 13.6702 31.9716 13.4036 32.1423C13.1422 32.313 12.8436 32.3983 12.5076 32.3983C12.2142 32.3983 11.9556 32.337 11.7316 32.2143C11.5076 32.0863 11.3369 31.905 11.2196 31.6703V31.9903C11.2196 32.1076 11.1822 32.2036 11.1076 32.2783C11.0382 32.3476 10.9422 32.3823 10.8196 32.3823C10.6969 32.3823 10.5982 32.3476 10.5236 32.2783C10.4489 32.2036 10.4116 32.1076 10.4116 31.9903V27.0463C10.4116 26.929 10.4489 26.8356 10.5236 26.7663C10.6036 26.697 10.7049 26.6623 10.8276 26.6623C10.9449 26.6623 11.0382 26.697 11.1076 26.7663C11.1822 26.8303 11.2196 26.9183 11.2196 27.0303V29.0783C11.3369 28.8436 11.5076 28.6623 11.7316 28.5343C11.9556 28.4063 12.2142 28.3423 12.5076 28.3423ZM12.3156 31.7583C12.6622 31.7583 12.9316 31.6356 13.1236 31.3903C13.3209 31.145 13.4196 30.801 13.4196 30.3583C13.4196 29.921 13.3236 29.585 13.1316 29.3503C12.9396 29.1103 12.6676 28.9903 12.3156 28.9903C11.9636 28.9903 11.6916 29.1103 11.4996 29.3503C11.3129 29.5903 11.2196 29.9316 11.2196 30.3743C11.2196 30.817 11.3129 31.1583 11.4996 31.3983C11.6916 31.6383 11.9636 31.7583 12.3156 31.7583ZM17.1861 28.3583C17.4421 28.3423 17.5701 28.4516 17.5701 28.6863C17.5701 28.8036 17.5408 28.8916 17.4821 28.9503C17.4235 29.009 17.3221 29.0436 17.1781 29.0543L16.9381 29.0783C16.6021 29.1103 16.3515 29.2276 16.1861 29.4303C16.0261 29.633 15.9461 29.8783 15.9461 30.1663V31.9983C15.9461 32.1263 15.9088 32.2223 15.8341 32.2863C15.7595 32.3503 15.6635 32.3823 15.5461 32.3823C15.4288 32.3823 15.3301 32.3503 15.2501 32.2863C15.1755 32.2223 15.1381 32.1263 15.1381 31.9983V28.7423C15.1381 28.6196 15.1755 28.5263 15.2501 28.4623C15.3301 28.393 15.4288 28.3583 15.5461 28.3583C15.6528 28.3583 15.7408 28.393 15.8101 28.4623C15.8848 28.5263 15.9221 28.617 15.9221 28.7343V29.1183C16.0288 28.8836 16.1835 28.705 16.3861 28.5823C16.5888 28.4596 16.8181 28.3876 17.0741 28.3663L17.1861 28.3583ZM19.6844 28.3423C20.2017 28.3423 20.5857 28.473 20.8364 28.7343C21.0924 28.9956 21.2204 29.393 21.2204 29.9263V31.9983C21.2204 32.121 21.1857 32.217 21.1164 32.2863C21.047 32.3503 20.951 32.3823 20.8284 32.3823C20.711 32.3823 20.6177 32.3476 20.5484 32.2783C20.479 32.209 20.4444 32.1156 20.4444 31.9983V31.7023C20.343 31.9263 20.191 32.0996 19.9884 32.2223C19.791 32.3396 19.559 32.3983 19.2924 32.3983C19.0364 32.3983 18.8017 32.3476 18.5884 32.2463C18.3804 32.1396 18.215 31.9956 18.0924 31.8143C17.9697 31.633 17.9084 31.4276 17.9084 31.1983C17.903 30.9103 17.975 30.6863 18.1244 30.5263C18.2737 30.361 18.5164 30.2436 18.8524 30.1743C19.1884 30.0996 19.655 30.0623 20.2524 30.0623H20.4364V29.8303C20.4364 29.5316 20.375 29.3156 20.2524 29.1823C20.1297 29.049 19.9324 28.9823 19.6604 28.9823C19.4737 28.9823 19.2977 29.0063 19.1324 29.0543C18.967 29.1023 18.7857 29.1716 18.5884 29.2623C18.4444 29.3423 18.343 29.3823 18.2844 29.3823C18.2044 29.3823 18.1377 29.353 18.0844 29.2943C18.0364 29.2356 18.0124 29.161 18.0124 29.0703C18.0124 28.9903 18.0337 28.921 18.0764 28.8623C18.1244 28.7983 18.199 28.737 18.3004 28.6783C18.487 28.577 18.7057 28.497 18.9564 28.4383C19.207 28.3743 19.4497 28.3423 19.6844 28.3423ZM19.4364 31.7983C19.7297 31.7983 19.9697 31.6996 20.1564 31.5023C20.343 31.2996 20.4364 31.041 20.4364 30.7263V30.5183H20.2924C19.8764 30.5183 19.5564 30.537 19.3324 30.5743C19.1084 30.6116 18.9484 30.6756 18.8524 30.7663C18.7564 30.8516 18.7084 30.977 18.7084 31.1423C18.7084 31.3343 18.7777 31.4916 18.9164 31.6143C19.055 31.737 19.2284 31.7983 19.4364 31.7983ZM24.4296 28.3423C25.363 28.3423 25.8296 28.8676 25.8296 29.9183V31.9983C25.8296 32.121 25.7923 32.217 25.7176 32.2863C25.6483 32.3503 25.5496 32.3823 25.4216 32.3823C25.299 32.3823 25.2003 32.3476 25.1256 32.2783C25.0563 32.209 25.0216 32.1156 25.0216 31.9983V29.9583C25.0216 29.6276 24.955 29.385 24.8216 29.2303C24.6936 29.0756 24.491 28.9983 24.2136 28.9983C23.8883 28.9983 23.627 29.0996 23.4296 29.3023C23.2323 29.505 23.1336 29.777 23.1336 30.1183V31.9983C23.1336 32.1156 23.0963 32.209 23.0216 32.2783C22.9523 32.3476 22.8563 32.3823 22.7336 32.3823C22.611 32.3823 22.5123 32.3476 22.4376 32.2783C22.363 32.209 22.3256 32.1156 22.3256 31.9983V28.7423C22.3256 28.6303 22.363 28.5396 22.4376 28.4703C22.5176 28.3956 22.6163 28.3583 22.7336 28.3583C22.851 28.3583 22.9443 28.393 23.0136 28.4623C23.083 28.5316 23.1176 28.6223 23.1176 28.7343V29.0623C23.2456 28.8276 23.4243 28.649 23.6536 28.5263C23.883 28.4036 24.1416 28.3423 24.4296 28.3423ZM29.823 31.3503C29.8977 31.3503 29.959 31.3823 30.007 31.4463C30.055 31.505 30.079 31.5796 30.079 31.6703C30.079 31.745 30.0577 31.8143 30.015 31.8783C29.9777 31.937 29.911 31.9983 29.815 32.0623C29.6763 32.153 29.5163 32.2276 29.335 32.2863C29.1537 32.345 28.9697 32.3796 28.783 32.3903L28.743 32.6943C28.8177 32.6783 28.8843 32.6703 28.943 32.6703C29.1083 32.6703 29.247 32.7183 29.359 32.8143C29.4763 32.9103 29.535 33.0463 29.535 33.2223C29.535 33.4196 29.4497 33.5796 29.279 33.7023C29.1083 33.8303 28.8657 33.8943 28.551 33.8943C28.343 33.8943 28.159 33.865 27.999 33.8063C27.903 33.769 27.855 33.7023 27.855 33.6063C27.855 33.5423 27.8763 33.489 27.919 33.4463C27.967 33.4036 28.0283 33.393 28.103 33.4143C28.263 33.457 28.4123 33.4783 28.551 33.4783C28.6897 33.4783 28.7963 33.457 28.871 33.4143C28.9457 33.3716 28.983 33.3076 28.983 33.2223C28.983 33.1583 28.9617 33.1076 28.919 33.0703C28.8817 33.0383 28.8257 33.0223 28.751 33.0223C28.6977 33.0223 28.6257 33.033 28.535 33.0543C28.4443 33.0756 28.3883 33.0863 28.367 33.0863C28.3243 33.0863 28.2843 33.0703 28.247 33.0383C28.215 33.0116 28.2017 32.9743 28.207 32.9263L28.271 32.3743C27.791 32.2996 27.4097 32.0863 27.127 31.7343C26.8497 31.3823 26.711 30.9343 26.711 30.3903C26.711 29.985 26.791 29.6276 26.951 29.3183C27.1163 29.009 27.3457 28.769 27.639 28.5983C27.9323 28.4276 28.2683 28.3423 28.647 28.3423C28.8497 28.3423 29.0523 28.3716 29.255 28.4303C29.463 28.489 29.647 28.569 29.807 28.6703C29.9777 28.7876 30.063 28.9236 30.063 29.0783C30.063 29.169 30.039 29.2463 29.991 29.3103C29.943 29.369 29.8817 29.3983 29.807 29.3983C29.759 29.3983 29.711 29.3876 29.663 29.3663C29.615 29.3396 29.5537 29.3023 29.479 29.2543C29.3457 29.169 29.2203 29.105 29.103 29.0623C28.991 29.0143 28.855 28.9903 28.695 28.9903C28.3323 28.9903 28.0497 29.113 27.847 29.3583C27.6497 29.6036 27.551 29.945 27.551 30.3823C27.551 30.8196 27.6497 31.1583 27.847 31.3983C28.0443 31.633 28.3243 31.7503 28.687 31.7503C28.847 31.7503 28.9883 31.7263 29.111 31.6783C29.2337 31.6303 29.359 31.5663 29.487 31.4863C29.5457 31.449 29.6043 31.417 29.663 31.3903C29.7217 31.3636 29.775 31.3503 29.823 31.3503ZM32.4422 28.3423C32.9595 28.3423 33.3435 28.473 33.5942 28.7343C33.8502 28.9956 33.9782 29.393 33.9782 29.9263V31.9983C33.9782 32.121 33.9435 32.217 33.8742 32.2863C33.8049 32.3503 33.7089 32.3823 33.5862 32.3823C33.4689 32.3823 33.3755 32.3476 33.3062 32.2783C33.2369 32.209 33.2022 32.1156 33.2022 31.9983V31.7023C33.1009 31.9263 32.9489 32.0996 32.7462 32.2223C32.5489 32.3396 32.3169 32.3983 32.0502 32.3983C31.7942 32.3983 31.5595 32.3476 31.3462 32.2463C31.1382 32.1396 30.9729 31.9956 30.8502 31.8143C30.7275 31.633 30.6662 31.4276 30.6662 31.1983C30.6609 30.9103 30.7329 30.6863 30.8822 30.5263C31.0315 30.361 31.2742 30.2436 31.6102 30.1743C31.9462 30.0996 32.4129 30.0623 33.0102 30.0623H33.1942V29.8303C33.1942 29.5316 33.1329 29.3156 33.0102 29.1823C32.8875 29.049 32.6902 28.9823 32.4182 28.9823C32.2315 28.9823 32.0555 29.0063 31.8902 29.0543C31.7249 29.1023 31.5435 29.1716 31.3462 29.2623C31.2022 29.3423 31.1009 29.3823 31.0422 29.3823C30.9622 29.3823 30.8955 29.353 30.8422 29.2943C30.7942 29.2356 30.7702 29.161 30.7702 29.0703C30.7702 28.9903 30.7915 28.921 30.8342 28.8623C30.8822 28.7983 30.9569 28.737 31.0582 28.6783C31.2449 28.577 31.4635 28.497 31.7142 28.4383C31.9649 28.3743 32.2075 28.3423 32.4422 28.3423ZM32.1942 31.7983C32.4875 31.7983 32.7275 31.6996 32.9142 31.5023C33.1009 31.2996 33.1942 31.041 33.1942 30.7263V30.5183H33.0502C32.6342 30.5183 32.3142 30.537 32.0902 30.5743C31.8662 30.6116 31.7062 30.6756 31.6102 30.7663C31.5142 30.8516 31.4662 30.977 31.4662 31.1423C31.4662 31.3343 31.5355 31.4916 31.6742 31.6143C31.8129 31.737 31.9862 31.7983 32.1942 31.7983Z" fill="#DA0175"/>
</svg>
